<svg width="1632" height="156" viewBox="0 0 1632 156" fill="none" xmlns="http://www.w3.org/2000/svg">
<rect x="84.3506" y="103.002" width="19.9468" height="19.9468" rx="2.5" stroke="white" stroke-width="3"/>
<path d="M54.514 80.8476C58.426 80.8476 61.5973 77.6763 61.5973 73.7642C61.5973 69.8522 58.426 66.6809 54.514 66.6809C50.602 66.6809 47.4307 69.8522 47.4307 73.7642C47.4307 77.6763 50.602 80.8476 54.514 80.8476Z" stroke="white" stroke-width="2" stroke-linecap="round" stroke-linejoin="round"/>
<path d="M54.5142 70.9309V73.7642" stroke="white" stroke-width="2" stroke-linecap="round" stroke-linejoin="round"/>
<ellipse cx="54.5142" cy="76.4493" rx="1.00399" ry="1.00399" fill="white"/>
<path d="M220.497 28.7642L256.346 28.7642" stroke="white" stroke-width="2"/>
<path d="M94.3241 133.774V142.616C94.3241 144.273 92.9809 145.616 91.3241 145.616H30.6499" stroke="white" stroke-width="2"/>
<path d="M54.5142 88.5901V108.213C54.5142 109.87 55.8574 111.213 57.5142 111.213H76.2183" stroke="white" stroke-width="2"/>
<path d="M132.68 80.8476V108.213C132.68 109.87 131.337 111.213 129.68 111.213H110.976" stroke="white" stroke-width="2"/>
<path d="M20.5439 152.923V150.923C20.5439 149.862 20.1225 148.845 19.3724 148.095C18.6222 147.345 17.6048 146.923 16.5439 146.923H8.54395C7.48308 146.923 6.46566 147.345 5.71552 148.095C4.96537 148.845 4.54395 149.862 4.54395 150.923V152.923" stroke="white" stroke-width="2" stroke-linecap="round" stroke-linejoin="round"/>
<path d="M12.5439 142.923C14.7531 142.923 16.5439 141.132 16.5439 138.923C16.5439 136.714 14.7531 134.923 12.5439 134.923C10.3348 134.923 8.54395 136.714 8.54395 138.923C8.54395 141.132 10.3348 142.923 12.5439 142.923Z" stroke="white" stroke-width="2" stroke-linecap="round" stroke-linejoin="round"/>
<path d="M199.987 146.923H195.987C195.457 146.923 194.948 146.713 194.573 146.338C194.198 145.962 193.987 145.454 193.987 144.923V130.923C193.987 130.393 194.198 129.884 194.573 129.509C194.948 129.134 195.457 128.923 195.987 128.923H199.987" stroke="white" stroke-width="2" stroke-linecap="round" stroke-linejoin="round"/>
<path d="M206.987 142.923L211.987 137.923L206.987 132.923" stroke="white" stroke-width="2" stroke-linecap="round" stroke-linejoin="round"/>
<path d="M211.987 137.923H199.987" stroke="white" stroke-width="2" stroke-linecap="round" stroke-linejoin="round"/>
<path d="M134.014 69.7642H143.014" stroke="white" stroke-width="2" stroke-linecap="round" stroke-linejoin="round"/>
<path d="M138.514 53.2641C138.912 52.8663 139.452 52.6428 140.014 52.6428C140.293 52.6428 140.569 52.6977 140.826 52.8043C141.083 52.9109 141.317 53.0672 141.514 53.2641C141.711 53.4611 141.867 53.695 141.974 53.9523C142.081 54.2097 142.135 54.4856 142.135 54.7641C142.135 55.0427 142.081 55.3186 141.974 55.5759C141.867 55.8333 141.711 56.0672 141.514 56.2641L129.014 68.7641L125.014 69.7641L126.014 65.7641L138.514 53.2641Z" stroke="white" stroke-width="2" stroke-linecap="round" stroke-linejoin="round"/>
<path d="M209.987 19.7642H195.987C194.883 19.7642 193.987 20.6596 193.987 21.7642V35.7642C193.987 36.8687 194.883 37.7642 195.987 37.7642H209.987C211.092 37.7642 211.987 36.8687 211.987 35.7642V21.7642C211.987 20.6596 211.092 19.7642 209.987 19.7642Z" stroke="white" stroke-width="2" stroke-linecap="round" stroke-linejoin="round"/>
<path d="M199.487 26.7642C200.316 26.7642 200.987 26.0926 200.987 25.2642C200.987 24.4357 200.316 23.7642 199.487 23.7642C198.659 23.7642 197.987 24.4357 197.987 25.2642C197.987 26.0926 198.659 26.7642 199.487 26.7642Z" stroke="white" stroke-width="2" stroke-linecap="round" stroke-linejoin="round"/>
<path d="M211.987 31.7642L206.987 26.7642L195.987 37.7642" stroke="white" stroke-width="2" stroke-linecap="round" stroke-linejoin="round"/>
<line x1="202.987" y1="117.79" x2="202.987" y2="49.7642" stroke="white" stroke-width="2"/>
<path d="M152.363 61.8862H166.612C168.268 61.8862 169.612 63.2294 169.612 64.8862V133.774C169.612 135.431 170.955 136.774 172.612 136.774H185.495" stroke="white" stroke-width="2"/>
<g clip-path="url(#clip0)">
<path d="M1434.61 143.715C1434.61 144.223 1434.4 144.711 1434.04 145.07C1433.68 145.43 1433.2 145.632 1432.69 145.632H1415.44C1414.93 145.632 1414.44 145.43 1414.08 145.07C1413.72 144.711 1413.52 144.223 1413.52 143.715V133.173C1413.52 132.665 1413.72 132.177 1414.08 131.818C1414.44 131.459 1414.93 131.257 1415.44 131.257H1419.27L1421.19 128.382H1426.94L1428.86 131.257H1432.69C1433.2 131.257 1433.68 131.459 1434.04 131.818C1434.4 132.177 1434.61 132.665 1434.61 133.173V143.715Z" stroke="white" stroke-width="2" stroke-linecap="round" stroke-linejoin="round"/>
<path d="M1424.06 141.798C1426.18 141.798 1427.9 140.082 1427.9 137.965C1427.9 135.848 1426.18 134.132 1424.06 134.132C1421.95 134.132 1420.23 135.848 1420.23 137.965C1420.23 140.082 1421.95 141.798 1424.06 141.798Z" stroke="white" stroke-width="2" stroke-linecap="round" stroke-linejoin="round"/>
</g>
<path d="M1526.23 115.725L1522.14 108.637L1530.32 108.637L1526.23 115.725Z" fill="white"/>
<g clip-path="url(#clip1)">
<path d="M1567.44 89.8712L1560.16 97.1466C1559.27 98.0379 1558.06 98.5386 1556.8 98.5386C1555.54 98.5386 1554.33 98.0379 1553.44 97.1466C1552.55 96.2553 1552.05 95.0465 1552.05 93.786C1552.05 92.5255 1552.55 91.3166 1553.44 90.4254L1560.71 83.1499C1561.31 82.5557 1562.11 82.2219 1562.95 82.2219C1563.79 82.2219 1564.6 82.5557 1565.19 83.1499C1565.79 83.7441 1566.12 84.55 1566.12 85.3904C1566.12 86.2307 1565.79 87.0366 1565.19 87.6308L1557.91 94.9062C1557.61 95.2033 1557.21 95.3702 1556.79 95.3702C1556.37 95.3702 1555.97 95.2033 1555.67 94.9062C1555.37 94.6091 1555.21 94.2061 1555.21 93.786C1555.21 93.3658 1555.37 92.9629 1555.67 92.6658L1562.39 85.9524" stroke="white" stroke-width="2" stroke-linecap="round" stroke-linejoin="round"/>
</g>
<path d="M1504.81 73V83.1802C1504.81 84.837 1503.47 86.1802 1501.81 86.1802H1475.43" stroke="white" stroke-width="2"/>
<path d="M1526.59 125.507V137.463C1526.59 139.12 1525.24 140.463 1523.59 140.463H1447.07" stroke="white" stroke-width="2"/>
<path d="M1559.96 73V57.5308C1559.96 55.8739 1558.62 54.5308 1556.96 54.5308H1526.23" stroke="white" stroke-width="2"/>
<path d="M1423.11 29.7641V51.5308C1423.11 53.1876 1424.45 54.5308 1426.11 54.5308H1484.91" stroke="white" stroke-width="2"/>
<path d="M1559.96 111V134.007C1559.96 135.663 1561.31 137.007 1562.96 137.007H1598.04" stroke="white" stroke-width="2"/>
<rect x="1610.52" y="127.965" width="20" height="20" rx="3" fill="white" stroke="white" stroke-width="2"/>
<path d="M1615 139.054C1616.13 140.187 1618.39 142.454 1618.39 142.454L1626.03 134.804" stroke="#0F296A" stroke-width="2"/>
<path d="M1428.56 10H1414.56" stroke="white" stroke-width="2" stroke-linecap="round" stroke-linejoin="round"/>
<path d="M1432.56 6H1414.56" stroke="white" stroke-width="2" stroke-linecap="round" stroke-linejoin="round"/>
<path d="M1432.56 14H1414.56" stroke="white" stroke-width="2" stroke-linecap="round" stroke-linejoin="round"/>
<path d="M1428.56 18H1414.56" stroke="white" stroke-width="2" stroke-linecap="round" stroke-linejoin="round"/>
<g clip-path="url(#clip2)">
<path d="M1464.95 82.5336C1464.5 82.0865 1463.97 81.7318 1463.39 81.4898C1462.8 81.2478 1462.18 81.1233 1461.54 81.1233C1460.91 81.1233 1460.29 81.2478 1459.7 81.4898C1459.12 81.7318 1458.59 82.0865 1458.14 82.5336L1457.21 83.4611L1456.29 82.5336C1455.38 81.6309 1454.16 81.1238 1452.88 81.1238C1451.6 81.1238 1450.38 81.6309 1449.48 82.5336C1448.58 83.4364 1448.07 84.6607 1448.07 85.9374C1448.07 87.214 1448.58 88.4384 1449.48 89.3411L1450.41 90.2686L1457.21 97.0761L1464.02 90.2686L1464.95 89.3411C1465.39 88.8942 1465.75 88.3636 1465.99 87.7796C1466.23 87.1955 1466.36 86.5696 1466.36 85.9374C1466.36 85.3052 1466.23 84.6792 1465.99 84.0952C1465.75 83.5112 1465.39 82.9805 1464.95 82.5336V82.5336Z" stroke="white" stroke-width="2" stroke-linecap="round" stroke-linejoin="round"/>
</g>
<path d="M1511.81 45H1497.81C1496.71 45 1495.81 45.8954 1495.81 47V61C1495.81 62.1046 1496.71 63 1497.81 63H1511.81C1512.92 63 1513.81 62.1046 1513.81 61V47C1513.81 45.8954 1512.92 45 1511.81 45Z" stroke="white" stroke-width="2" stroke-linecap="round" stroke-linejoin="round"/>
<path d="M1501.31 52C1502.14 52 1502.81 51.3284 1502.81 50.5C1502.81 49.6716 1502.14 49 1501.31 49C1500.48 49 1499.81 49.6716 1499.81 50.5C1499.81 51.3284 1500.48 52 1501.31 52Z" stroke="white" stroke-width="2" stroke-linecap="round" stroke-linejoin="round"/>
<path d="M1513.81 57L1508.81 52L1497.81 63" stroke="white" stroke-width="2" stroke-linecap="round" stroke-linejoin="round"/>
<path d="M1438.28 86.1802H1423.8M1387.74 86.1802H1423.8M1423.8 86.1802V117.923" stroke="white" stroke-width="2"/>
<defs>
<clipPath id="clip0">
<rect width="23" height="23" fill="white" transform="translate(1412.56 125.507)"/>
</clipPath>
<clipPath id="clip1">
<rect width="19" height="19" fill="white" transform="translate(1550.46 81.1233)"/>
</clipPath>
<clipPath id="clip2">
<rect width="21" height="21" fill="white" transform="translate(1446.71 78.5)"/>
</clipPath>
</defs>
</svg>
